<svg xmlns="http://www.w3.org/2000/svg" width="1200" height="630" viewBox="0 0 1200 630">
<defs>
<linearGradient id="bg-og" x1="0" y1="0" x2="1200" y2="630" gradientUnits="userSpaceOnUse">
  <stop offset="0" stop-color="#24345C"/>
  <stop offset="1" stop-color="#0A1124"/>
</linearGradient>
</defs>
<rect width="1200" height="630" fill="url(#bg-og)"/>
<svg x="70" y="95" width="440" height="440" viewBox="0 0 100 100">
<g transform="translate(50 50) scale(0.95) translate(-50.5 -52.5)">
<mask id="tm-og" maskUnits="userSpaceOnUse" x="-100" y="-100" width="300" height="300"><rect x="-100" y="-100" width="300" height="300" fill="#fff"/><polygon points="18.00,62.41 38.00,45.62 38.00,50.82 18.00,67.61" fill="#000"/><polygon points="18.00,93.41 38.00,76.62 38.00,81.82 18.00,98.61" fill="#000"/></mask><rect x="24.00" y="18.00" width="9.00" height="79.00" fill="#8F7440" mask="url(#tm-og)"/><rect x="36.00" y="8.00" width="9.00" height="78.00" fill="#E7B95E"/><polygon points="43.00,36.53 77.00,8.00 77.00,23.00 43.00,51.53" fill="#E7B95E"/><polygon points="43.00,67.53 77.00,39.00 77.00,54.00 43.00,82.53" fill="#E7B95E"/>
</g>
</svg>
<text x="560" y="292" font-family="'Noto Sans', 'Liberation Sans', Arial, sans-serif" font-size="96" font-weight="700" letter-spacing="-1" fill="#F4EFE3">FeohLedger</text>
<rect x="564" y="324" width="112" height="6" fill="#E7B95E"/>
<text x="562" y="402" font-family="'Noto Sans', 'Liberation Sans', Arial, sans-serif" font-size="40" fill="#B4C0DA">Accounts payable, automated.</text>
<text x="562" y="454" font-family="'Noto Sans', 'Liberation Sans', Arial, sans-serif" font-size="28" fill="#8795B6">Invoice to payment, every bill matched.</text>
</svg>
